<svg width="305" height="1399" viewBox="0 0 305 1399" fill="none" xmlns="http://www.w3.org/2000/svg">
<path d="M183 0C183 18.5021 169.569 33.501 153 33.501C136.431 33.501 123 18.5021 123 0H0V337.793C0.16592 337.786 0.332604 337.783 0.5 337.783C7.95584 337.783 14 344.782 14 353.417C14 362.051 7.95584 369.05 0.5 369.05C0.332604 369.05 0.16592 369.047 0 369.04V1396.79L2.5 1394.29L7 1398.79L11.5 1394.29L16 1398.79L20.5 1394.29L25 1398.79L29.5 1394.29L34 1398.79L38.5 1394.29L43 1398.79L47.5 1394.29L52 1398.79L56.5 1394.29L61 1398.79L65.5 1394.29L70 1398.79L74.5 1394.29L79 1398.79L83.5 1394.29L88 1398.79L92.5 1394.29L97 1398.79L101.5 1394.29L106 1398.79L110.5 1394.29L115 1398.79L119.5 1394.29L123.157 1397.95C123.053 1396.82 123 1395.67 123 1394.5C123 1376 136.431 1361 153 1361C169.569 1361 183 1376 183 1394.5C183 1394.94 182.992 1395.38 182.977 1395.82L184.5 1394.29L189 1398.79L193.5 1394.29L198 1398.79L202.5 1394.29L207 1398.79L211.5 1394.29L216 1398.79L220.5 1394.29L225 1398.79L229.5 1394.29L234 1398.79L238.5 1394.29L243 1398.79L247.5 1394.29L252 1398.79L256.5 1394.29L261 1398.79L265.5 1394.29L270 1398.79L274.5 1394.29L279 1398.79L283.5 1394.29L288 1398.79L292.5 1394.29L297 1398.79L301.5 1394.29L305 1397.79V369.04C297.776 368.735 292 361.857 292 353.417C292 344.976 297.776 338.098 305 337.793V0H183Z" fill="white"/>
</svg>
